<svg display="none" width="0" height="0" version="1.1" xmlns="http://www.w3.org/2000/svg" xmlns:xlink="http://www.w3.org/1999/xlink">
<defs>
<symbol id="icon-fullscreen-off" viewBox="0 0 1024 1024">
	<title>fullscreen-off</title>
	<path class="path1" d="M261.163 554.667c-23.595 0-42.667 19.115-42.667 42.667s19.072 42.667 42.667 42.667h62.507l-140.501 140.501c-16.683 16.683-16.683 43.648 0 60.331 8.32 8.32 19.243 12.501 30.165 12.501s21.845-4.181 30.165-12.501l145.664-145.664v72.832c0 23.552 19.072 42.667 42.667 42.667s37.504-19.115 37.504-42.667v-213.333h-208.171z"></path>
	<path class="path2" d="M298.667 469.333c23.552 0 42.667-19.115 42.667-42.667v-85.333h85.333c23.595 0 42.667-19.115 42.667-42.667s-19.072-42.667-42.667-42.667h-170.624l-0.043 170.667c0 23.552 19.072 42.667 42.667 42.667z"></path>
	<path class="path3" d="M725.333 554.667c-23.595 0-42.667 19.115-42.667 42.667v85.333h-85.333c-23.595 0-42.667 19.115-42.667 42.667s19.072 42.667 42.667 42.667h170.667v-170.667c0-23.552-19.072-42.667-42.667-42.667z"></path>
	<path class="path4" d="M780.501 183.168l-140.501 140.501v-67.669c0-23.552-19.072-42.667-42.667-42.667s-42.667 19.115-42.667 42.667v213.333h213.333c23.552 0 42.667-19.115 42.667-42.667s-19.072-42.667-42.667-42.667h-67.669l140.501-140.459c16.683-16.683 16.683-43.648 0-60.331s-43.648-16.725-60.331-0.043z"></path>
</symbol>
<symbol id="icon-fullscreen-on" viewBox="0 0 1024 1024">
	<title>fullscreen-on</title>
	<path class="path1" d="M640 170.667c-23.595 0-42.667 19.115-42.667 42.667s19.072 42.667 42.667 42.667h67.669l-140.501 140.501c-16.683 16.683-16.683 43.648 0 60.331 8.32 8.32 19.243 12.501 30.165 12.501s21.845-4.181 30.165-12.501l140.501-140.501v67.669c0 23.552 19.072 42.667 42.667 42.667s42.667-19.115 42.667-42.667v-213.333h-213.333z"></path>
	<path class="path2" d="M396.501 567.168l-140.501 140.501v-67.669c0-23.552-19.072-42.667-42.667-42.667s-42.667 19.115-42.667 42.667v213.291h42.496c0.341 0 170.837 0.043 170.837 0.043 23.552 0 42.667-19.115 42.667-42.667s-19.072-42.667-42.667-42.667h-67.669l140.501-140.459c16.683-16.683 16.683-43.648 0-60.331s-43.648-16.725-60.331-0.043z"></path>
	<path class="path3" d="M298.667 512c23.552 0 42.667-19.115 42.667-42.667v-128h128c23.595 0 42.667-19.115 42.667-42.667s-19.072-42.667-42.667-42.667h-213.291l-0.043 213.333c0 23.552 19.072 42.667 42.667 42.667z"></path>
	<path class="path4" d="M725.333 512c-23.595 0-42.667 19.115-42.667 42.667v128h-128c-23.595 0-42.667 19.115-42.667 42.667s19.072 42.667 42.667 42.667h213.333v-213.333c0-23.552-19.072-42.667-42.667-42.667z"></path>
</symbol>
<symbol id="icon-pause" viewBox="0 0 1024 1024">
	<title>pause</title>
	<path class="path1" d="M341.333 853.333c-70.571 0-128-57.429-128-128v-384c0-70.571 57.429-128 128-128s128 57.429 128 128v384c0 70.571-57.429 128-128 128zM341.333 298.667c-23.552 0-42.667 19.157-42.667 42.667v384c0 23.509 19.115 42.667 42.667 42.667s42.667-19.157 42.667-42.667v-384c0-23.509-19.115-42.667-42.667-42.667z"></path>
	<path class="path2" d="M640 853.333c-70.571 0-128-57.429-128-128v-384c0-70.571 57.429-128 128-128s128 57.429 128 128v384c0 70.571-57.429 128-128 128zM640 298.667c-23.552 0-42.667 19.157-42.667 42.667v384c0 23.509 19.115 42.667 42.667 42.667s42.667-19.157 42.667-42.667v-384c0-23.509-19.115-42.667-42.667-42.667z"></path>
</symbol>
<symbol id="icon-rewind" viewBox="0 0 1024 1024">
	<title>rewind</title>
	<path class="path1" d="M426.667 370.176v343.466l-176.341-171.733 176.341-171.733zM435.2 273.067c-20.821 0-39.723 8.405-53.461 21.845-101.589 98.773-253.739 246.997-253.739 246.997s152.149 148.181 253.611 246.997c13.909 13.44 32.768 21.76 53.589 21.76 42.411 0 76.8-34.347 76.8-76.757v-384c0-42.411-34.389-76.843-76.8-76.843z"></path>
	<path class="path2" d="M810.667 370.176v343.509l-176.341-171.733 176.341-171.776zM819.2 273.067c-20.821 0-39.723 8.405-53.461 21.845-101.589 98.773-253.739 246.997-253.739 246.997s152.149 148.181 253.611 246.997c13.909 13.44 32.768 21.76 53.589 21.76 42.411 0 76.8-34.347 76.8-76.757v-384c0-42.411-34.389-76.843-76.8-76.843z"></path>
</symbol>
<symbol id="icon-play" viewBox="0 0 1024 1024">
	<title>play</title>
	<path class="path1" d="M383.915 298.752c1.152 1.109 2.389 2.261 3.627 3.328l215.509 209.92-217.429 211.797c-0.555 0.512-1.067 1.024-1.621 1.536l-0.085-426.581zM384 213.333c-47.104 0-85.333 38.229-85.333 85.333v426.667c0 47.104 38.229 85.333 85.333 85.333 23.168 0 44.075-9.301 59.435-24.235 112.811-109.781 281.899-274.432 281.899-274.432s-169.088-164.651-281.771-274.475c-15.488-14.891-36.395-24.192-59.563-24.192z"></path>
</symbol>
<symbol id="icon-forward" viewBox="0 0 1024 1024">
	<title>forward</title>
	<path class="path1" d="M597.333 370.176l176.341 171.733-176.341 171.776v-343.509zM588.8 273.067c-42.411 0-76.8 34.432-76.8 76.843v384c0 42.411 34.389 76.757 76.8 76.757 20.821 0 39.68-8.32 53.461-21.845 101.589-98.731 253.739-246.912 253.739-246.912s-152.149-148.267-253.611-246.997c-13.952-13.397-32.768-21.845-53.589-21.845z"></path>
	<path class="path2" d="M213.333 370.176l176.341 171.733-176.341 171.776v-343.509zM204.8 273.067c-42.411 0-76.8 34.432-76.8 76.843v384c0 42.411 34.389 76.757 76.8 76.757 20.821 0 39.68-8.32 53.461-21.845 101.589-98.731 253.739-246.912 253.739-246.912s-152.149-148.224-253.611-246.997c-13.952-13.397-32.768-21.845-53.589-21.845z"></path>
</symbol>
<symbol id="icon-volume-up" viewBox="0 0 1024 1024">
	<title>volume-up</title>
	<path class="path1" d="M712.789 439.125c-16.597-16.597-43.648-16.683-60.331 0.085-16.64 16.683-16.64 43.648 0.085 60.331 14.72 14.72 22.827 34.261 22.827 55.083 0 20.864-8.107 40.448-22.869 55.211-16.683 16.64-16.683 43.648 0 60.331 8.32 8.32 19.243 12.501 30.165 12.501s21.845-4.181 30.165-12.501c30.891-30.848 47.872-71.893 47.872-115.541s-16.981-84.651-47.915-115.499z"></path>
	<path class="path2" d="M798.123 353.792c-16.683-16.597-43.648-16.64-60.331 0.085-16.64 16.683-16.64 43.691 0.085 60.331 37.504 37.419 58.155 87.211 58.197 140.245 0.043 53.163-20.651 103.125-58.24 140.715-16.683 16.683-16.683 43.648 0 60.331 8.32 8.32 19.243 12.501 30.165 12.501s21.845-4.181 30.165-12.501c53.717-53.717 83.285-125.141 83.243-201.088-0.043-75.819-29.611-147.072-83.285-200.619z"></path>
	<path class="path3" d="M883.456 268.459c-16.683-16.597-43.648-16.64-60.331 0.085-16.64 16.683-16.64 43.691 0.085 60.331 60.245 60.117 93.483 140.16 93.525 225.451 0.085 85.419-33.152 165.76-93.568 226.176-16.683 16.683-16.683 43.648 0 60.331 8.32 8.32 19.243 12.501 30.165 12.501s21.845-4.181 30.165-12.501c76.544-76.544 118.656-178.347 118.571-286.592-0.043-108.075-42.197-209.579-118.613-285.781z"></path>
	<path class="path4" d="M517.888 248.491c-19.157 0-38.613 6.485-57.856 19.328l-114.048 76.032c-32.085 21.419-94.080 40.149-132.651 40.149-70.571 0-128 57.429-128 128v85.333c0 70.571 57.429 128 128 128 38.571 0 100.565 18.731 132.651 40.149l114.005 75.989c19.243 12.843 38.699 19.328 57.856 19.328 38.315 0.043 79.488-29.013 79.488-92.8v-426.667c0-63.787-41.173-92.843-79.445-92.843zM213.333 640c-23.552 0-42.667-19.115-42.667-42.667v-85.333c0-23.552 19.115-42.667 42.667-42.667 51.669 0 124.032-21.12 170.667-48.896v268.501c-46.635-27.819-118.997-48.939-170.667-48.939zM512 768c0 1.963-0.085 3.669-0.256 5.12-1.28-0.683-2.773-1.536-4.437-2.645l-80.64-53.76v-324.096l80.683-53.803c1.621-1.067 3.115-1.963 4.437-2.645 0.128 1.493 0.213 3.2 0.213 5.163v426.667z"></path>
</symbol>
<symbol id="icon-volume-mute" viewBox="0 0 1024 1024">
	<title>volume-mute</title>
	<path class="path1" d="M840.832 225.835c-16.683-16.683-43.648-16.683-60.331 0l-66.176 66.176c-14.72-29.355-42.112-43.52-68.437-43.52-19.157 0-38.613 6.485-57.856 19.328l-114.005 75.989c-32.128 21.461-94.123 40.192-132.693 40.192-70.571 0-128 57.429-128 128v85.333c0 52.779 32.171 98.219 77.909 117.76l-65.408 65.408c-16.683 16.683-16.683 43.648 0 60.331 8.32 8.32 19.243 12.501 30.165 12.501s21.845-4.181 30.165-12.501l107.819-107.819c29.739 7.424 60.416 19.413 80 32.512l114.005 75.989c19.243 12.843 38.699 19.328 57.856 19.328 38.315 0 79.488-29.056 79.488-92.843v-366.336l115.499-115.499c16.683-16.683 16.683-43.648 0-60.331zM635.349 338.816c1.621-1.067 3.115-1.963 4.437-2.645 0.128 1.493 0.213 3.2 0.213 5.163v55.168l-85.333 85.333v-89.216l80.683-53.803zM298.667 512c0-23.552 19.115-42.667 42.667-42.667 51.669 0 124.032-21.12 170.667-48.896v104.064l-120.747 120.747c-17.621-3.285-34.731-5.248-49.92-5.248-23.552 0-42.667-19.115-42.667-42.667v-85.333zM439.509 657.323l72.491-72.491v104.064c-20.523-12.245-45.867-23.125-72.491-31.573zM639.744 773.12c-1.28-0.683-2.773-1.536-4.437-2.645l-80.64-53.76v-174.549l85.333-85.333v311.168c0 1.963-0.085 3.669-0.256 5.12z"></path>
</symbol>
<symbol id="icon-volume-down" viewBox="0 0 1024 1024">
	<title>volume-down</title>
	<path class="path1" d="M645.888 248.491c-19.157 0-38.613 6.485-57.856 19.328l-114.005 75.989c-32.128 21.461-94.123 40.192-132.693 40.192-70.571 0-128 57.429-128 128v85.333c0 70.571 57.429 128 128 128 38.571 0 100.565 18.731 132.651 40.149l114.005 75.989c19.243 12.843 38.699 19.328 57.856 19.328 38.315 0.043 79.488-29.013 79.488-92.8v-426.667c0-63.787-41.173-92.843-79.445-92.843zM341.333 640c-23.552 0-42.667-19.115-42.667-42.667v-85.333c0-23.552 19.115-42.667 42.667-42.667 51.669 0 124.032-21.12 170.667-48.896v268.501c-46.635-27.819-118.997-48.939-170.667-48.939zM640 768c0 1.963-0.085 3.669-0.256 5.12-1.28-0.683-2.773-1.536-4.437-2.645l-80.64-53.76v-324.096l80.683-53.803c1.621-1.067 3.115-1.963 4.437-2.645 0.128 1.493 0.213 3.2 0.213 5.163v426.667z"></path>
	<path class="path2" d="M780.459 439.211c-16.64 16.683-16.64 43.648 0.085 60.331 14.72 14.72 22.827 34.261 22.827 55.083 0 20.864-8.107 40.448-22.869 55.211-16.683 16.64-16.683 43.648 0 60.331 8.32 8.32 19.243 12.501 30.165 12.501s21.845-4.181 30.165-12.501c30.891-30.848 47.872-71.893 47.872-115.541s-16.981-84.651-47.915-115.499c-16.597-16.597-43.648-16.683-60.331 0.085z"></path>
</symbol>
</defs>
</svg>
